# xmcd
# Copyright (C) 1995-1998 Ti Kan
#
# Track frame offsets:
#       150
#       14433
#       32807
#       47770
#       63137
#       82901
#       99965
#       115567
#       132675
#       147086
#       163505
#       179049
#
# Disc length: 2589 seconds
#
# Revision: 0
# Processed by: cddbd v1.4PL0 Copyright (c) Steve Scherf et al.
# Submitted via: CD-Transfer v1.0
#
DISCID=990a1b0c
DTITLE=Popmonster - Destressor
DYEAR=2003
DGENRE=
TTITLE0=Perfect Dimmer
TTITLE1=Am I Doing Someting Dumb Again
TTITLE2=Gimme The Key
TTITLE3=Dance It All Away
TTITLE4=Viva La Luna
TTITLE5=Honey Dream
TTITLE6=Elephant Girl
TTITLE7=Inside The Insinde
TTITLE8=Hotel Yeste
TTITLE9=Heaven In A Blue Hole
TTITLE10=Tower
TTITLE11=Inside Out
EXTD=
EXTT0=
EXTT1=
EXTT2=
EXTT3=
EXTT4=
EXTT5=
EXTT6=
EXTT7=
EXTT8=
EXTT9=
EXTT10=
EXTT11=
PLAYORDER=
